# xmcd
#
# Track frame offsets:
#	150
#	14627
#	36328
#	56854
#	71688
#	87871
#	107931
#	124895
#	140982
#	159013
#	175890
#
# Disc length: 2653 seconds
#
# Revision: 0
# Processed by: cddbd v1.5.2PL0 Copyright (c) Steve Scherf et al.
# Submitted via: EasyCDDAExtractor 4.6.9.1
#
DISCID=a10a5b0b
DTITLE=Geneviève Jodoin - Amis chemin
DYEAR=2011
DGENRE=Québécois
TTITLE0=L'étoile du Nord
TTITLE1=On va s'aimer encore
TTITLE2=Que veux-tu que j'te dise
TTITLE3=Bird On A Wire
TTITLE4=Quand on est en amour
TTITLE5=Chanson pour durer toujours
TTITLE6=Pendant que
TTITLE7=Going To California
TTITLE8=Le ciel se marie avec la mer
TTITLE9=Un enfant
TTITLE10=L'oiseau de paradis
EXTD=
EXTT0=
EXTT1=
EXTT2=
EXTT3=
EXTT4=
EXTT5=
EXTT6=
EXTT7=
EXTT8=
EXTT9=
EXTT10=
PLAYORDER=
